{
  "accessors": [
    {
      "bufferView": 2,
      "componentType": 5126,
      "count": 643,
      "max": [
        0.3274880051612854,
        1.5272480249404907,
        0.4089139997959137
      ],
      "min": [
        -0.5172370076179504,
        -0.0021569998934865,
        -0.21566900610923767
      ],
      "type": "VEC3"
    },
    {
      "bufferView": 2,
      "byteOffset": 7716,
      "componentType": 5126,
      "count": 643,
      "max": [
        0.9958975911140442,
        0.9873507022857666,
        0.9941568970680237
      ],
      "min": [
        -0.9973828196525574,
        -0.9999207258224487,
        -0.9995254278182983
      ],
      "type": "VEC3"
    },
    {
      "bufferView": 1,
      "componentType": 5126,
      "count": 643,
      "max": [
        0.995048999786377,
        0.8712869882583618
      ],
      "min": [
        0.00494999997317791,
        0.128712996840477
      ],
      "type": "VEC2"
    },
    {
      "bufferView": 0,
      "componentType": 5125,
      "count": 861,
      "type": "SCALAR"
    },
    {
      "bufferView": 2,
      "byteOffset": 15432,
      "componentType": 5126,
      "count": 592,
      "max": [
        0.22664499282836914,
        1.9414219856262207,
        0.45913299918174744
      ],
      "min": [
        -0.42579200863838196,
        1.0488289594650269,
        -0.15861600637435913
      ],
      "type": "VEC3"
    },
    {
      "bufferView": 2,
      "byteOffset": 22536,
      "componentType": 5126,
      "count": 592,
      "max": [
        0.9899499416351318,
        0.9944353103637695,
        0.9811565279960632
      ],
      "min": [
        -0.9998968243598938,
        -0.9276372790336609,
        -0.9959604144096375
      ],
      "type": "VEC3"
    },
    {
      "bufferView": 1,
      "byteOffset": 5144,
      "componentType": 5126,
      "count": 592,
      "max": [
        0.8712869882583618,
        0.8712869882583618
      ],
      "min": [
        0.25247499346733093,
        0.37623798847198486
      ],
      "type": "VEC2"
    },
    {
      "bufferView": 0,
      "byteOffset": 3444,
      "componentType": 5125,
      "count": 732,
      "type": "SCALAR"
    },
    {
      "bufferView": 2,
      "byteOffset": 29640,
      "componentType": 5126,
      "count": 154,
      "max": [
        0.5141710042953491,
        1.249250054359436,
        0.6176480054855347
      ],
      "min": [
        -0.1783750057220459,
        0.5657039880752563,
        -0.37778499722480774
      ],
      "type": "VEC3"
    },
    {
      "bufferView": 2,
      "byteOffset": 31488,
      "componentType": 5126,
      "count": 154,
      "max": [
        0.7637860178947449,
        0.9823233485221863,
        0.6561681032180786
      ],
      "min": [
        -0.8361194729804993,
        -0.9867377877235413,
        -0.6723629236221313
      ],
      "type": "VEC3"
    },
    {
      "bufferView": 1,
      "byteOffset": 9880,
      "componentType": 5126,
      "count": 154,
      "max": [
        0.995048999786377,
        0.8712869882583618
      ],
      "min": [
        0.00494999997317791,
        0.128712996840477
      ],
      "type": "VEC2"
    },
    {
      "bufferView": 0,
      "byteOffset": 6372,
      "componentType": 5125,
      "count": 240,
      "type": "SCALAR"
    },
    {
      "bufferView": 2,
      "byteOffset": 33336,
      "componentType": 5126,
      "count": 221,
      "max": [
        0.19357900321483612,
        1.5810960531234741,
        0.1635970026254654
      ],
      "min": [
        -0.25049400329589844,
        0.6785889863967896,
        -0.16005699336528778
      ],
      "type": "VEC3"
    },
    {
      "bufferView": 2,
      "byteOffset": 35988,
      "componentType": 5126,
      "count": 221,
      "max": [
        0.9989308714866638,
        0.4249553084373474,
        0.9993373155593872
      ],
      "min": [
        -0.9269726872444153,
        -0.4579165577888489,
        -0.9956905841827393
      ],
      "type": "VEC3"
    },
    {
      "bufferView": 1,
      "byteOffset": 11112,
      "componentType": 5126,
      "count": 221,
      "max": [
        0.8712869882583618,
        0.5928220152854919
      ],
      "min": [
        0.0,
        0.0
      ],
      "type": "VEC2"
    },
    {
      "bufferView": 0,
      "byteOffset": 7332,
      "componentType": 5125,
      "count": 267,
      "type": "SCALAR"
    },
    {
      "bufferView": 2,
      "byteOffset": 38640,
      "componentType": 5126,
      "count": 376,
      "max": [
        0.2300190031528473,
        1.628546953201294,
        0.15492700040340424
      ],
      "min": [
        -0.4042069911956787,
        0.4562709927558899,
        -0.4376710057258606
      ],
      "type": "VEC3"
    },
    {
      "bufferView": 2,
      "byteOffset": 43152,
      "componentType": 5126,
      "count": 376,
      "max": [
        0.9964669346809387,
        0.9892910718917847,
        0.9997175335884094
      ],
      "min": [
        -0.982856273651123,
        -0.9728991985321045,
        -0.9748094081878662
      ],
      "type": "VEC3"
    },
    {
      "bufferView": 1,
      "byteOffset": 12880,
      "componentType": 5126,
      "count": 376,
      "max": [
        0.8712869882583618,
        0.577351987361908
      ],
      "min": [
        0.0,
        0.0
      ],
      "type": "VEC2"
    },
    {
      "bufferView": 0,
      "byteOffset": 8400,
      "componentType": 5125,
      "count": 510,
      "type": "SCALAR"
    },
    {
      "bufferView": 2,
      "byteOffset": 47664,
      "componentType": 5126,
      "count": 100,
      "max": [
        0.40884000062942505,
        1.7872519493103027,
        0.3036769926548004
      ],
      "min": [
        -0.38708600401878357,
        1.1193050146102905,
        -0.14820200204849243
      ],
      "type": "VEC3"
    },
    {
      "bufferView": 2,
      "byteOffset": 48864,
      "componentType": 5126,
      "count": 100,
      "max": [
        0.9535384774208069,
        0.7539430260658264,
        0.9228017926216125
      ],
      "min": [
        -0.9261007308959961,
        -0.8877213001251221,
        -0.7555426955223083
      ],
      "type": "VEC3"
    },
    {
      "bufferView": 1,
      "byteOffset": 15888,
      "componentType": 5126,
      "count": 100,
      "max": [
        0.7475249767303467,
        0.8712869882583618
      ],
      "min": [
        0.37623798847198486,
        0.5309410095214844
      ],
      "type": "VEC2"
    },
    {
      "bufferView": 0,
      "byteOffset": 10440,
      "componentType": 5125,
      "count": 132,
      "type": "SCALAR"
    },
    {
      "bufferView": 2,
      "byteOffset": 50064,
      "componentType": 5126,
      "count": 540,
      "max": [
        0.43122398853302,
        1.7754830121994019,
        0.42249399423599243
      ],
      "min": [
        -0.48260799050331116,
        0.9603580236434937,
        -0.260360985994339
      ],
      "type": "VEC3"
    },
    {
      "bufferView": 2,
      "byteOffset": 56544,
      "componentType": 5126,
      "count": 540,
      "max": [
        0.9995761513710022,
        0.919580340385437,
        0.9799612760543823
      ],
      "min": [
        -0.9973964691162109,
        -0.9914592504501343,
        -0.9532801508903503
      ],
      "type": "VEC3"
    },
    {
      "bufferView": 1,
      "byteOffset": 16688,
      "componentType": 5126,
      "count": 540,
      "max": [
        0.8712869882583618,
        0.8712869882583618
      ],
      "min": [
        0.37623798847198486,
        0.5309410095214844
      ],
      "type": "VEC2"
    },
    {
      "bufferView": 0,
      "byteOffset": 10968,
      "componentType": 5125,
      "count": 726,
      "type": "SCALAR"
    },
    {
      "bufferView": 2,
      "byteOffset": 63024,
      "componentType": 5126,
      "count": 8,
      "max": [
        0.08666899800300598,
        1.6628179550170898,
        0.1938830018043518
      ],
      "min": [
        0.0216279998421669,
        1.6105339527130127,
        0.13311900198459625
      ],
      "type": "VEC3"
    },
    {
      "bufferView": 2,
      "byteOffset": 63120,
      "componentType": 5126,
      "count": 8,
      "max": [
        0.865994393825531,
        -0.35782358050346375,
        0.8782284259796143
      ],
      "min": [
        0.2763911783695221,
        -0.390285462141037,
        0.34930819272994995
      ],
      "type": "VEC3"
    },
    {
      "bufferView": 1,
      "byteOffset": 21008,
      "componentType": 5126,
      "count": 8,
      "max": [
        0.5,
        0.6237620115280151
      ],
      "min": [
        0.37623798847198486,
        0.6237620115280151
      ],
      "type": "VEC2"
    },
    {
      "bufferView": 0,
      "byteOffset": 13872,
      "componentType": 5125,
      "count": 12,
      "type": "SCALAR"
    }
  ],
  "asset": {
    "extras": {
      "author": "DavidA3D (https://sketchfab.com/DavidA3D)",
      "license": "SKETCHFAB Standard (https://sketchfab.com/licenses)",
      "source": "https://sketchfab.com/3d-models/low-poly-koseba-rebel-moon-73017af88e6b4377aff367eb2b308538",
      "title": "Low-Poly Koseba (Rebel Moon)"
    },
    "generator": "Sketchfab-16.14.0",
    "version": "2.0"
  },
  "bufferViews": [
    {
      "buffer": 0,
      "byteLength": 13920,
      "name": "floatBufferViews",
      "target": 34963
    },
    {
      "buffer": 0,
      "byteLength": 21072,
      "byteOffset": 13920,
      "byteStride": 8,
      "name": "floatBufferViews",
      "target": 34962
    },
    {
      "buffer": 0,
      "byteLength": 63216,
      "byteOffset": 34992,
      "byteStride": 12,
      "name": "floatBufferViews",
      "target": 34962
    }
  ],
  "buffers": [
    {
      "byteLength": 98208,
      "uri": "scene.bin"
    }
  ],
  "materials": [
    {
      "doubleSided": true,
      "name": "Brown",
      "pbrMetallicRoughness": {
        "baseColorFactor": [
          0.184314,
          0.145098,
          0.117647,
          1.0
        ],
        "metallicFactor": 0.0,
        "roughnessFactor": 0.9714654158856926
      }
    },
    {
      "doubleSided": true,
      "name": "Gold",
      "pbrMetallicRoughness": {
        "baseColorFactor": [
          0.47451,
          0.372549,
          0.168627,
          1.0
        ],
        "metallicFactor": 0.0,
        "roughnessFactor": 0.9284997513112472
      }
    },
    {
      "doubleSided": true,
      "name": "Gray",
      "pbrMetallicRoughness": {
        "baseColorFactor": [
          0.317647,
          0.317647,
          0.317647,
          1.0
        ],
        "metallicFactor": 0.0,
        "roughnessFactor": 0.9401536877355167
      }
    },
    {
      "doubleSided": true,
      "name": "Black-Dark.001",
      "pbrMetallicRoughness": {
        "baseColorFactor": [
          0.0,
          0.0,
          0.0,
          1.0
        ],
        "metallicFactor": 0.0
      }
    },
    {
      "doubleSided": true,
      "name": "Teal",
      "pbrMetallicRoughness": {
        "baseColorFactor": [
          0.223529,
          0.305882,
          0.258824,
          1.0
        ],
        "metallicFactor": 0.0,
        "roughnessFactor": 0.9463090394853835
      }
    },
    {
      "doubleSided": true,
      "name": "Red-Dark",
      "pbrMetallicRoughness": {
        "baseColorFactor": [
          0.278431,
          0.039216,
          0.078431,
          1.0
        ],
        "metallicFactor": 0.0,
        "roughnessFactor": 0.9824963319400893
      }
    },
    {
      "doubleSided": true,
      "name": "Orange-Dark",
      "pbrMetallicRoughness": {
        "baseColorFactor": [
          0.415686,
          0.27451,
          0.176471,
          1.0
        ],
        "metallicFactor": 0.0,
        "roughnessFactor": 0.9439597340222954
      }
    },
    {
      "doubleSided": true,
      "name": "Black.002",
      "pbrMetallicRoughness": {
        "baseColorFactor": [
          0.047059,
          0.047059,
          0.047059,
          1.0
        ],
        "metallicFactor": 0.0,
        "roughnessFactor": 0.9911163053116739
      }
    }
  ],
  "meshes": [
    {
      "name": "Koseba.obj_Brown_0",
      "primitives": [
        {
          "attributes": {
            "NORMAL": 1,
            "POSITION": 0,
            "TEXCOORD_0": 2
          },
          "indices": 3,
          "material": 0,
          "mode": 4
        }
      ]
    },
    {
      "name": "Koseba.obj_Gold_0",
      "primitives": [
        {
          "attributes": {
            "NORMAL": 5,
            "POSITION": 4,
            "TEXCOORD_0": 6
          },
          "indices": 7,
          "material": 1,
          "mode": 4
        }
      ]
    },
    {
      "name": "Koseba.obj_Gray_0",
      "primitives": [
        {
          "attributes": {
            "NORMAL": 9,
            "POSITION": 8,
            "TEXCOORD_0": 10
          },
          "indices": 11,
          "material": 2,
          "mode": 4
        }
      ]
    },
    {
      "name": "Koseba.obj_Black-Dark.001_0",
      "primitives": [
        {
          "attributes": {
            "NORMAL": 13,
            "POSITION": 12,
            "TEXCOORD_0": 14
          },
          "indices": 15,
          "material": 3,
          "mode": 4
        }
      ]
    },
    {
      "name": "Koseba.obj_Teal_0",
      "primitives": [
        {
          "attributes": {
            "NORMAL": 17,
            "POSITION": 16,
            "TEXCOORD_0": 18
          },
          "indices": 19,
          "material": 4,
          "mode": 4
        }
      ]
    },
    {
      "name": "Koseba.obj_Red-Dark_0",
      "primitives": [
        {
          "attributes": {
            "NORMAL": 21,
            "POSITION": 20,
            "TEXCOORD_0": 22
          },
          "indices": 23,
          "material": 5,
          "mode": 4
        }
      ]
    },
    {
      "name": "Koseba.obj_Orange-Dark_0",
      "primitives": [
        {
          "attributes": {
            "NORMAL": 25,
            "POSITION": 24,
            "TEXCOORD_0": 26
          },
          "indices": 27,
          "material": 6,
          "mode": 4
        }
      ]
    },
    {
      "name": "Koseba.obj_Black.002_0",
      "primitives": [
        {
          "attributes": {
            "NORMAL": 29,
            "POSITION": 28,
            "TEXCOORD_0": 30
          },
          "indices": 31,
          "material": 7,
          "mode": 4
        }
      ]
    }
  ],
  "nodes": [
    {
      "children": [
        1
      ],
      "matrix": [
        1.0,
        0.0,
        0.0,
        0.0,
        0.0,
        2.220446049250313e-16,
        -1.0,
        0.0,
        0.0,
        1.0,
        2.220446049250313e-16,
        0.0,
        0.0,
        0.0,
        0.0,
        1.0
      ],
      "name": "Sketchfab_model"
    },
    {
      "children": [
        2
      ],
      "matrix": [
        0.009999999776482582,
        0.0,
        0.0,
        0.0,
        0.0,
        0.0,
        0.009999999776482582,
        0.0,
        0.0,
        -0.009999999776482582,
        0.0,
        0.0,
        0.0,
        0.0,
        0.0,
        1.0
      ],
      "name": "9b9b3552ae954135b95215cb65ad2042.fbx"
    },
    {
      "children": [
        3
      ],
      "name": "RootNode"
    },
    {
      "children": [
        4,
        5,
        6,
        7,
        8,
        9,
        10,
        11
      ],
      "matrix": [
        100.0,
        0.0,
        0.0,
        0.0,
        0.0,
        99.99999999999866,
        1.6292067073209114e-05,
        0.0,
        0.0,
        -1.6292067073209114e-05,
        99.99999999999866,
        0.0,
        0.0,
        0.0,
        0.0,
        1.0
      ],
      "name": "Koseba.obj"
    },
    {
      "mesh": 0,
      "name": "Koseba.obj_Brown_0"
    },
    {
      "mesh": 1,
      "name": "Koseba.obj_Gold_0"
    },
    {
      "mesh": 2,
      "name": "Koseba.obj_Gray_0"
    },
    {
      "mesh": 3,
      "name": "Koseba.obj_Black-Dark.001_0"
    },
    {
      "mesh": 4,
      "name": "Koseba.obj_Teal_0"
    },
    {
      "mesh": 5,
      "name": "Koseba.obj_Red-Dark_0"
    },
    {
      "mesh": 6,
      "name": "Koseba.obj_Orange-Dark_0"
    },
    {
      "mesh": 7,
      "name": "Koseba.obj_Black.002_0"
    }
  ],
  "scene": 0,
  "scenes": [
    {
      "name": "Sketchfab_Scene",
      "nodes": [
        0
      ]
    }
  ]
}
